<?xml version="1.0" encoding="UTF-8"?><svg xmlns="http://www.w3.org/2000/svg" xmlns:xlink="http://www.w3.org/1999/xlink" viewBox="0 0 446.9513 393.1155"><defs><style>.m{fill:url(#k);}.n{fill:url(#d);}.o{fill:url(#l);}.p{fill:url(#h);}.q{fill:url(#j);}.r{fill:url(#i);}.s{fill:url(#f);}.t{filter:url(#a);}</style><filter id="a" x="0" y="0" width="450.9513" height="397.1155" filterUnits="userSpaceOnUse"><feOffset dx="4" dy="4"/><feGaussianBlur result="b" stdDeviation="0"/><feFlood flood-color="#000" flood-opacity=".25"/><feComposite in2="b" operator="in"/><feComposite in="SourceGraphic"/></filter><linearGradient id="d" x1="-20.4166" y1="-21.3076" x2="459.5834" y2="253.3591" gradientUnits="userSpaceOnUse"><stop offset="0" stop-color="#f85858"/><stop offset=".125" stop-color="#e75454"/><stop offset=".1251" stop-color="#ff8a00"/><stop offset=".25" stop-color="#ff8a00"/><stop offset=".251" stop-color="#ffde7b"/><stop offset=".375" stop-color="#ffde7b"/><stop offset=".3751" stop-color="#2ac68e"/><stop offset=".5" stop-color="#2ac68e"/><stop offset=".501" stop-color="#3dddd8"/><stop offset=".625" stop-color="#3dddd8"/><stop offset=".6251" stop-color="#008ce3"/><stop offset=".75" stop-color="#008ce3"/><stop offset=".751" stop-color="#a07dde"/><stop offset=".875" stop-color="#a07dde"/><stop offset=".8751" stop-color="#f076ab"/><stop offset="1" stop-color="#f076ab"/></linearGradient><linearGradient id="f" x1="-81.65" y1="85.7022" x2="398.35" y2="360.3689" xlink:href="#d"/><linearGradient id="h" x1="-86.3971" y1="93.9982" x2="393.6029" y2="368.6648" xlink:href="#d"/><linearGradient id="i" x1="-33.4246" y1="1.425" x2="446.5754" y2="276.0916" gradientUnits="userSpaceOnUse"><stop offset="0" stop-color="#f85858"/><stop offset=".125" stop-color="#e75454"/><stop offset=".1251" stop-color="#ff8a00"/><stop offset=".25" stop-color="#ff8a00"/><stop offset=".251" stop-color="#ffde7b"/><stop offset=".375" stop-color="#ffde7b"/><stop offset=".3751" stop-color="#2ac68e"/><stop offset=".5" stop-color="#2ac68e"/><stop offset=".501" stop-color="#3dddd8"/><stop offset=".625" stop-color="#3dddd8"/><stop offset=".6251" stop-color="#008ce3"/><stop offset=".75" stop-color="#008ce3"/><stop offset=".751" stop-color="#a07dde"/><stop offset=".875" stop-color="#a07dde"/><stop offset=".8751" stop-color="#f076ab"/><stop offset="1" stop-color="#f076ab"/></linearGradient><linearGradient id="j" x1="-131.2841" y1="172.4415" x2="348.7159" y2="447.1082" xlink:href="#d"/><linearGradient id="k" x1="13.0944" y1="-79.8705" x2="493.0944" y2="194.7962" xlink:href="#d"/><linearGradient id="l" x1="-11.1698" y1="-37.4669" x2="468.8302" y2="237.1998" xlink:href="#d"/></defs><g id="c" class="t"><path id="e" class="n" d="M378.792,79.7608l-110.215,191.6677h50.7569l29.9707-52.4488h84.1114l13.5352-21.9947-12.5684-21.9947h-59.4581l29.7291-51.2403-25.8618-43.9893Z"/><path id="g" class="s" d="M179.3899,276.746h221.1551l-24.6534,44.231h-59.4581l29.2457,51.7237-12.1266,20.2787h-26.5453l-41.7804-71.6406h-60.4585l-25.3784-44.5928Z"/><path class="p" d="M69.7836,373.7275H18.059c-.0918-61.4785-.0571-123.8105-.0239-184.1772.0024-4.4409.0049-8.9106.0073-13.3757l13.3594-7.7131h156.8926l10.3923-18H44.1918v-33.2788h21.5112v-18h-21.5112v-7.981c38.1919-.4067,76.8867-.2227,114.396-.0449,24.3604.1155,49.3097.2308,74.2299.1882l10.409-18.0288c-28.3177.103-56.8167-.0276-84.5534-.1589-40.5005-.1919-82.3799-.3901-123.5996.1519l-8.8818,8.999v68.903l-1.7017.4559-6.4371,3.7164c.0198-41.0062.0295-82.7255-.0102-123.9137v-12.0215h148.9121l46.2739,43.9854,6.2007,2.4771h28.0726l10.3923-18h-34.8702L176.7509,3.9253l-6.2007-2.4771H9.0429L.0429,10.4482v21.0303c.0508,52.6846.021,106.2549-.0078,158.062C0,252.8613-.0362,318.3389.0737,382.7432l9,8.9844h50.3176l10.3923-18Z"/><polygon class="r" points="228.223 99.3032 78.4829 99.3032 78.4829 117.3032 217.8307 117.3032 228.223 99.3032"/><polygon class="q" points="161.4708 254.9207 93.6505 372.3887 105.1881 392.874 131.775 393.1155 160.779 343.6965 190.0247 393.0032 241.265 392.1487 161.5041 254.8636 161.4708 254.9207"/><polygon class="m" points="345.6792 21.9946 333.3525 0 308.6992 0 252.8665 96.6798 308.2158 192.3928 333.3525 147.9201 303.3818 95.4713 345.6792 21.9946"/><polygon class="o" points="241.1131 116.9766 258.7651 117.2181 249.8634 101.8206 241.1131 116.9766"/></g></svg>